<?xml version="1.0" encoding="utf-8"?>
<!-- Generator: Adobe Illustrator 18.0.0, SVG Export Plug-In . SVG Version: 6.00 Build 0)  -->
<!DOCTYPE svg PUBLIC "-//W3C//DTD SVG 1.1//EN" "http://www.w3.org/Graphics/SVG/1.1/DTD/svg11.dtd">
<svg version="1.1" id="Capa_1" xmlns="http://www.w3.org/2000/svg" xmlns:xlink="http://www.w3.org/1999/xlink" x="0px" y="0px"
	 viewBox="0 0 1500 2000" enable-background="new 0 0 1500 2000" xml:space="preserve">
<g>
	<path fill="#5E5E5E" d="M750,250C336.5,250,0,586.4,0,1000s336.5,750,750,750s750-336.4,750-750S1163.5,250,750,250z M750,1692.3
		c-381.7,0-692.3-310.6-692.3-692.3S368.3,307.7,750,307.7s692.3,310.6,692.3,692.3S1131.7,1692.3,750,1692.3z"/>
	<path fill="#5E5E5E" d="M1030,720c-11.3-11.3-29.5-11.3-40.8,0L750,959.2L510.8,720c-11.3-11.3-29.5-11.3-40.8,0s-11.3,29.5,0,40.8
		L709.2,1000L470,1239.2c-11.3,11.3-11.3,29.5,0,40.8c5.6,5.6,13,8.5,20.4,8.5s14.8-2.8,20.4-8.5L750,1040.8L989.2,1280
		c5.6,5.6,13,8.5,20.4,8.5s14.8-2.8,20.4-8.5c11.3-11.3,11.3-29.5,0-40.8L790.8,1000L1030,760.8C1041.3,749.5,1041.3,731.3,1030,720
		z"/>
</g>
</svg>
