<?xml version="1.0" encoding="utf-8"?>
<!-- Generator: Adobe Illustrator 18.0.0, SVG Export Plug-In . SVG Version: 6.00 Build 0)  -->
<!DOCTYPE svg PUBLIC "-//W3C//DTD SVG 1.1//EN" "http://www.w3.org/Graphics/SVG/1.1/DTD/svg11.dtd">
<svg version="1.1" id="Capa_1" xmlns="http://www.w3.org/2000/svg" xmlns:xlink="http://www.w3.org/1999/xlink" x="0px" y="0px"
	 viewBox="0 0 1500 2000" enable-background="new 0 0 1500 2000" xml:space="preserve">
<g>
	<path id="Facebook" fill="#5E5E5E" d="M551.4,540.5c0,37.7,0,206.5,0,206.5H400v252.5h151.4V1750h310.7V999.5h208.6
		c0,0,19.5-121,28.9-253.5c-27.2,0-236.5,0-236.5,0s0-146.8,0-172.6c0-25.8,33.8-60.7,67.3-60.7c33.5,0,103.9,0,169.5,0
		c0-34.5,0-153.1,0-263c-87.2,0-186.6,0-230.2,0C543.7,250,551.4,502.8,551.4,540.5z"/>
</g>
</svg>
