<?xml version="1.0" encoding="utf-8"?>
<!-- Generator: Adobe Illustrator 18.0.0, SVG Export Plug-In . SVG Version: 6.00 Build 0)  -->
<!DOCTYPE svg PUBLIC "-//W3C//DTD SVG 1.1//EN" "http://www.w3.org/Graphics/SVG/1.1/DTD/svg11.dtd">
<svg version="1.1" id="Capa_1" xmlns="http://www.w3.org/2000/svg" xmlns:xlink="http://www.w3.org/1999/xlink" x="0px" y="0px"
	 viewBox="0 0 1500 2000" enable-background="new 0 0 1500 2000" xml:space="preserve">
<g>
	<g id="Monster_2_">
		<g>
			<path fill="#999999" d="M416.7,1472.1c-61.3,0-111.1,49.8-111.1,111.1h222.2C527.8,1521.9,478,1472.1,416.7,1472.1z
				 M916.7,1638.9c-30.7,0-55.6-24.9-55.6-55.6H750c0,92,74.7,166.7,166.7,166.7s166.7-74.7,166.7-166.7H972.2
				C972.2,1614,947.3,1638.9,916.7,1638.9z M750,250C381.8,250,83.3,548.4,83.3,916.7v666.7c0,92,74.7,166.7,166.7,166.7
				s166.7-74.7,166.7-166.7H305.6c0,30.7-24.9,55.6-55.6,55.6s-55.6-24.9-55.6-55.6V916.7c0-306.3,249.2-555.6,555.6-555.6
				s555.6,249.2,555.6,555.6v666.7c0,30.7-24.9,55.6-55.6,55.6s-55.6-24.9-55.6-55.6h-111.1c0,92,74.7,166.7,166.7,166.7
				c92,0,166.7-74.7,166.7-166.7V916.7C1416.7,548.4,1118.2,250,750,250z M583.3,1638.9c-30.7,0-55.6-24.9-55.6-55.6H416.7
				c0,92,74.7,166.7,166.7,166.7S750,1675.3,750,1583.3H638.9C638.9,1614,614,1638.9,583.3,1638.9z M694.4,972.2
				c0-92-74.7-166.7-166.7-166.7s-166.7,74.7-166.7,166.7s74.7,166.7,166.7,166.7S694.4,1064.2,694.4,972.2z M527.8,1027.8
				c-30.7,0-55.6-24.9-55.6-55.6c0-30.7,24.9-55.6,55.6-55.6s55.6,24.9,55.6,55.6C583.3,1002.9,558.4,1027.8,527.8,1027.8z
				 M1138.9,972.2c0-92-74.7-166.7-166.7-166.7s-166.7,74.7-166.7,166.7s74.7,166.7,166.7,166.7S1138.9,1064.2,1138.9,972.2z
				 M916.7,972.2c0-30.7,24.9-55.6,55.6-55.6c30.7,0,55.6,24.9,55.6,55.6c0,30.7-24.9,55.6-55.6,55.6S916.7,1002.9,916.7,972.2z
				 M1083.1,1472.1c-61.3,0-111.1,49.8-111.1,111.1h222.2C1194.2,1521.9,1144.4,1472.1,1083.1,1472.1z M749.8,1472.1
				c-61.3,0-111.1,49.8-111.1,111.1h222.2C860.9,1521.9,811.1,1472.1,749.8,1472.1z"/>
		</g>
	</g>
</g>
</svg>
