<?xml version="1.0" encoding="utf-8"?>
<!-- Generator: Adobe Illustrator 18.0.0, SVG Export Plug-In . SVG Version: 6.00 Build 0)  -->
<!DOCTYPE svg PUBLIC "-//W3C//DTD SVG 1.1//EN" "http://www.w3.org/Graphics/SVG/1.1/DTD/svg11.dtd">
<svg version="1.1" id="Capa_1" xmlns="http://www.w3.org/2000/svg" xmlns:xlink="http://www.w3.org/1999/xlink" x="0px" y="0px"
	 viewBox="0 0 1500 2000" enable-background="new 0 0 1500 2000" xml:space="preserve">
<g>
	<path id="Github__x28_alt_x29_" fill="#5E5E5E" d="M1095,425c20,45,31.7,118.3,13.3,171.7c76.7,65,103.3,225,66.7,356.7
		c110,8.3,240-3.3,325,30c-78.3-10-186.7-30-288.3-23.3c-20,1.7-48.3,0-46.7,26.7c118.3,10,235,20,331.7,50
		c-96.7-16.7-213.3-40-331.7-43.3c-50,96.7-148.3,145-285,155c15,31.7,43.3,45,50,95c10,76.7-16.7,190,10,241.7
		c11.7,25,33.3,25,46.7,46.7c-33.3,40-116.7-5-126.7-46.7c-16.7-71.7,25-183.3-20-231.7c3.3,78.3-18.3,188.3,3.3,256.7
		c8.3,26.7,33.3,38.3,26.7,63.3c-156.7,15-90-201.7-116.7-330c-23.3,1.7-13.3,35-13.3,50c0,125,25,296.7-110,280
		c-3.3-26.7,18.3-35,26.7-60c25-70-5-175,6.7-261.7c-51.7,38.3,5,175-26.7,245c-18.3,40-78.3,56.7-123.3,40c6.7-30,36.7-25,50-53.3
		c18.3-38.3,0-95,6.7-151.7c-95,18.3-170-3.3-205-63.3c-16.7-26.7-20-58.3-40-83.3c-20-23.3-50-26.7-60-60
		c118.3-25,123.3,125,230,128.3c33.3,1.7,50-10,80-16.7c8.3-38.3,26.7-66.7,53.3-86.7c-131.7-18.3-241.7-60-291.7-158.3
		c-120,6.7-230,21.7-331.7,46.7c91.7-33.3,206.7-45,328.3-50c-6.7-43.3-70-31.7-110-30c-73.3,5-165,13.3-223.3,25
		c83.3-30,201.7-26.7,315-26.7C280,848.3,291.7,675,368.3,610c-21.7-53.3-15-143.3,13.3-185c85,3.3,136.7,40,190,76.7
		c66.7-18.3,135-28.3,225-23.3c38.3,1.7,78.3,20,106.7,16.7c28.3-3.3,58.3-33.3,86.7-46.7C1025,431.7,1055,426.7,1095,425z"/>
</g>
</svg>
