<?xml version="1.0" encoding="utf-8"?>
<!-- Generator: Adobe Illustrator 18.0.0, SVG Export Plug-In . SVG Version: 6.00 Build 0)  -->
<!DOCTYPE svg PUBLIC "-//W3C//DTD SVG 1.1//EN" "http://www.w3.org/Graphics/SVG/1.1/DTD/svg11.dtd">
<svg version="1.1" id="Capa_1" xmlns="http://www.w3.org/2000/svg" xmlns:xlink="http://www.w3.org/1999/xlink" x="0px" y="0px"
	 viewBox="0 0 1500 2000" enable-background="new 0 0 1500 2000" xml:space="preserve">
<path fill="#5E5E5E" d="M1256.8,1750h-328c-12.5,0-22.7-10.2-22.7-22.7v-462.7H593.9v462.7c0,12.5-10.2,22.7-22.7,22.7H243.1
	c-12.5,0-22.7-10.2-22.7-22.7V972.4H33.2c-9.3,0-17.7-5.7-21.1-14.3s-1.2-18.5,5.5-24.9l716.7-677c8.8-8.3,22.5-8.3,31.3,0
	l716.9,677c6.7,6.4,8.9,16.3,5.5,24.9c-3.5,8.6-11.8,14.3-21.1,14.3h-187.3v754.9C1279.5,1739.8,1269.3,1750,1256.8,1750z
	 M951.5,1704.5H1234V949.7c0-12.5,10.2-22.7,22.7-22.7h152.9L749.9,304L90.4,927h152.7c12.5,0,22.7,10.2,22.7,22.7v754.9h282.6
	v-462.7c0-12.5,10.2-22.7,22.7-22.7h357.6c12.5,0,22.7,10.2,22.7,22.7L951.5,1704.5L951.5,1704.5z"/>
</svg>
