<?xml version="1.0" encoding="utf-8"?>
<!-- Generator: Adobe Illustrator 18.0.0, SVG Export Plug-In . SVG Version: 6.00 Build 0)  -->
<!DOCTYPE svg PUBLIC "-//W3C//DTD SVG 1.1//EN" "http://www.w3.org/Graphics/SVG/1.1/DTD/svg11.dtd">
<svg version="1.1" id="Capa_1" xmlns="http://www.w3.org/2000/svg" xmlns:xlink="http://www.w3.org/1999/xlink" x="0px" y="0px"
	 viewBox="0 0 1500 2000" enable-background="new 0 0 1500 2000" xml:space="preserve">
<g>
	<path id="LinkedIn" fill="#5E5E5E" d="M1500,1162v554.5h-321.6v-517.2c0-130.1-46.4-218.7-162.9-218.7
		c-88.9,0-141.6,59.6-165,117.5c-8.4,20.6-10.8,49.5-10.8,78.5v540.2H518.3c0,0,4.2-876.4,0-967.1h321.6v137.1
		c-0.7,1-1.4,2.1-2.1,3.1h2.1v-3.1c42.9-65.9,118.9-159.7,289.8-159.7C1341.3,726.7,1500,865.2,1500,1162z M182.1,283.5
		C71.8,283.5,0,355.7,0,450.5c0,92.8,69.8,167.1,177.9,167.1h2.1c112.3,0,182.1-74.3,182.1-167.1
		C359.6,355.7,291.9,283.5,182.1,283.5z M19.2,1716.9h321.6V749.4H19.2V1716.9z"/>
</g>
</svg>
