<?xml version="1.0" encoding="utf-8"?>
<!-- Generator: Adobe Illustrator 18.0.0, SVG Export Plug-In . SVG Version: 6.00 Build 0)  -->
<!DOCTYPE svg PUBLIC "-//W3C//DTD SVG 1.1//EN" "http://www.w3.org/Graphics/SVG/1.1/DTD/svg11.dtd">
<svg version="1.1" id="Capa_1" xmlns="http://www.w3.org/2000/svg" xmlns:xlink="http://www.w3.org/1999/xlink" x="0px" y="0px"
	 viewBox="0 0 1500 2000" enable-background="new 0 0 1500 2000" xml:space="preserve">
<g>
	<path fill="#5E5E5E" d="M1486.9,1673.5L1122.3,1309c97.8-112.4,157-259.1,157-419.4c0-352.9-287-639.6-639.6-639.6
		C286.9,250,0.2,537,0.2,889.6s287,639.6,639.6,639.6c160.3,0,307-59.2,419.4-157l364.5,364.5c8.6,8.6,20.3,13.3,31.6,13.3
		s22.9-4.3,31.6-13.3C1504.2,1719.4,1504.2,1690.8,1486.9,1673.5z M89.6,889.6c0-303.3,246.8-549.8,549.8-549.8
		c303.3,0,549.8,246.8,549.8,549.8s-246.5,550.1-549.8,550.1C336.4,1439.7,89.6,1192.9,89.6,889.6z"/>
</g>
</svg>
