<?xml version="1.0" encoding="utf-8"?>
<!-- Generator: Adobe Illustrator 18.0.0, SVG Export Plug-In . SVG Version: 6.00 Build 0)  -->
<!DOCTYPE svg PUBLIC "-//W3C//DTD SVG 1.1//EN" "http://www.w3.org/Graphics/SVG/1.1/DTD/svg11.dtd">
<svg version="1.1" id="Capa_1" xmlns="http://www.w3.org/2000/svg" xmlns:xlink="http://www.w3.org/1999/xlink" x="0px" y="0px"
	 viewBox="0 0 1500 2000" enable-background="new 0 0 1500 2000" xml:space="preserve">
<g>
	<path fill="#5E5E5E" d="M1386.4,1436.8H113.6C51,1436.8,0,1385.8,0,1323.1V459.5c0-62.7,51-113.6,113.6-113.6h1272.7
		c62.6,0,113.6,51,113.6,113.6v863.6C1500,1385.8,1449,1436.8,1386.4,1436.8z M113.6,391.4c-37.6,0-68.2,30.6-68.2,68.2v863.6
		c0,37.6,30.6,68.2,68.2,68.2h1272.7c37.6,0,68.2-30.6,68.2-68.2V459.5c0-37.6-30.6-68.2-68.2-68.2L113.6,391.4L113.6,391.4z"/>
	<path fill="#5E5E5E" d="M1039.8,1654.1H460.2c-12.5,0-22.7-10.2-22.7-22.7s10.2-22.7,22.7-22.7h579.5c12.5,0,22.7,10.2,22.7,22.7
		S1052.3,1654.1,1039.8,1654.1z"/>
	<path fill="#5E5E5E" d="M750,1063.7L750,1063.7c-12.5,0-22.7-10.2-22.7-22.7V713.9c0-12.5,10.2-22.7,22.7-22.7l0,0
		c12.5,0,22.7,10.2,22.7,22.7V1041C772.7,1053.5,762.5,1063.7,750,1063.7z"/>
	<path fill="#5E5E5E" d="M750,1063.7c-6,0-11.8-2.4-16.1-6.6L589.7,912.8c-8.9-8.9-8.9-23.3,0-32.1c8.9-8.9,23.3-8.9,32.1,0
		L750,1008.8l128.1-128.1c8.9-8.9,23.3-8.9,32.1,0c8.9,8.9,8.9,23.3,0,32.1L766.1,1057C761.8,1061.3,756,1063.7,750,1063.7z"/>
	<path fill="#5E5E5E" d="M750,1654.1c-12.5,0-22.7-10.2-22.7-22.7V1414c0-12.5,10.2-22.7,22.7-22.7s22.7,10.2,22.7,22.7v217.3
		C772.7,1644,762.5,1654.1,750,1654.1z"/>
</g>
</svg>
