<?xml version="1.0" encoding="utf-8"?>
<!-- Generator: Adobe Illustrator 18.0.0, SVG Export Plug-In . SVG Version: 6.00 Build 0)  -->
<!DOCTYPE svg PUBLIC "-//W3C//DTD SVG 1.1//EN" "http://www.w3.org/Graphics/SVG/1.1/DTD/svg11.dtd">
<svg version="1.1" id="Capa_1" xmlns="http://www.w3.org/2000/svg" xmlns:xlink="http://www.w3.org/1999/xlink" x="0px" y="0px"
	 viewBox="0 0 1500 2000" enable-background="new 0 0 1500 2000" xml:space="preserve">
<g>
	<g id="Pacman_2_">
		<g>
			<path fill="#5E5E5E" d="M1472.6,1316.6L892.5,986.8l570.2-323.5c-16.2-31.8-34.9-62.2-55.3-91.3l0.4-0.3
				c-18.4-26.1-38.8-50.9-60.3-74.5c-3.6-4.1-7.8-7.6-11.7-11.6c-18.3-19.2-37.4-37.6-57.6-54.8c-7.9-6.8-16.4-12.9-24.6-19.3
				c-17.1-13.4-34.6-26.2-52.8-38.1c-10.2-6.6-20.6-12.6-31-18.9c-17.7-10.3-35.7-19.9-54.1-28.8c-11.5-5.5-22.9-10.8-34.6-15.7
				c-19-7.8-38.5-14.8-58.2-21.2c-11.9-3.9-23.7-8-35.8-11.4c-21.6-5.9-43.9-10.3-66.3-14.3c-10.8-1.9-21.3-4.5-32.4-6
				c-33.5-4.5-67.7-7.3-102.6-7.3C367,250,27.4,585.8,27.4,1000s339.5,750,758.5,750c35.8,0,70.9-2.9,105.4-7.6
				c11.1-1.5,21.9-4.3,32.8-6.3c23.1-4.3,46.1-8.9,68.5-15.1c12.2-3.4,23.9-7.6,35.9-11.7c20.6-6.9,40.8-14.4,60.5-22.8
				c11.6-5,22.8-10.4,34-16c19.6-9.6,38.6-20.1,57.1-31.4c10-6,19.8-12,29.5-18.4c19.6-13.2,38.4-27.4,56.6-42.3
				c7.3-6,14.9-11.6,22-17.8c22.4-19.7,43.5-40.6,63.4-62.8c2.1-2.4,4.4-4.4,6.5-6.8c22-25,42.6-51.1,61.1-78.9l-0.6-0.3
				C1438.6,1381.5,1456.9,1349.8,1472.6,1316.6z M1217.1,1480.3c-2.4,2-4.9,3.8-7.3,5.8c-19.2,16.4-39.3,31.7-60.3,45.9
				c-6.9,4.6-14,8.7-21,13.1c-17.4,10.7-35.1,20.7-53.5,29.8c-8.9,4.4-17.9,8.6-27.1,12.5c-17.6,7.7-35.7,14.5-54.1,20.7
				c-9.9,3.3-19.7,6.8-29.8,9.5c-19.5,5.6-39.6,9.7-59.9,13.4c-9.2,1.7-18.2,4-27.5,5.2c-29.7,4.1-60,6.6-90.9,6.6
				c-359,0-650-287.8-650-642.9s291-642.9,650-642.9c29.9,0,59.1,2.4,87.9,6.2c9.5,1.3,18.7,3.5,28.1,5.2
				c19.1,3.4,37.9,7.2,56.4,12.2c10.6,2.9,21,6.3,31.4,9.7c16.6,5.5,32.9,11.5,49,18.1c10.3,4.3,20.6,8.9,30.5,13.7
				c15.6,7.6,30.9,15.9,45.7,24.6c9.1,5.4,18.3,10.5,27.2,16.2c16.3,10.7,31.8,22.4,47.1,34.4c6.3,5,13.1,9.5,19.3,14.8
				c20.9,17.8,40.8,36.9,59.2,57.1c3.3,3.6,6.1,7.6,9.3,11.4c12.3,14,23.7,28.8,34.7,43.9l-635.8,362l648.8,370.4
				C1293.9,1402.4,1258.2,1444.2,1217.1,1480.3z M861.9,678.6c44.4,0,80.4-36,80.4-80.4s-36-80.4-80.4-80.4s-80.4,36-80.4,80.4
				S817.4,678.6,861.9,678.6z"/>
		</g>
	</g>
</g>
</svg>
