<?xml version="1.0" encoding="utf-8"?>
<!-- Generator: Adobe Illustrator 18.0.0, SVG Export Plug-In . SVG Version: 6.00 Build 0)  -->
<!DOCTYPE svg PUBLIC "-//W3C//DTD SVG 1.1//EN" "http://www.w3.org/Graphics/SVG/1.1/DTD/svg11.dtd">
<svg version="1.1" id="Capa_1" xmlns="http://www.w3.org/2000/svg" xmlns:xlink="http://www.w3.org/1999/xlink" x="0px" y="0px"
	 viewBox="0 0 1500 2000" enable-background="new 0 0 1500 2000" xml:space="preserve">
<g>
	<g>
		<path fill="#5E5E5E" d="M526,1394.6c-9.7,0-17.6-7.9-17.6-17.6V800.6c0-68,52.2-123.3,116.3-123.3S741,732.6,741,800.6v374.7
			c0,9.7-7.9,17.6-17.6,17.6c-9.7,0-17.6-7.9-17.6-17.6V800.6c0-48.5-36.4-88.1-81.1-88.1c-44.7,0-81.1,39.5-81.1,88.1v576.3
			C543.6,1386.7,535.8,1394.6,526,1394.6z"/>
		<path fill="#5E5E5E" d="M602.3,1750c-4.5,0-9-1.7-12.5-5.1l-261.1-261.1c-29-29-48.5-64.6-54.8-100.2c-6.7-37.9,2.2-71.3,24.9-94
			c45.3-45.4,120.3-44.2,167.1,2.6l72.4,72.4c6.9,6.9,6.9,18,0,24.9s-18,6.9-24.9,0l-72.4-72.4c-33.1-33.1-85.8-34.2-117.3-2.6
			c-14.4,14.4-19.8,36.8-15.1,63.1c5,28.6,21,57.5,45,81.5L614.7,1720c6.9,6.9,6.9,18,0,24.9C611.3,1748.3,606.8,1750,602.3,1750z"
			/>
		<path fill="#5E5E5E" d="M921,1213.1c-9.7,0-17.6-7.9-17.6-17.6v-88.8c0-39.3-36.4-71.2-81.1-71.2c-44.7,0-81.1,31.9-81.1,71.2
			v88.8c0,9.7-7.9,17.6-17.6,17.6c-9.7,0-17.6-7.9-17.6-17.6v-88.8c0-58.7,52.2-106.4,116.3-106.4s116.3,47.7,116.3,106.4v88.8
			C938.6,1205.2,930.7,1213.1,921,1213.1z"/>
		<path fill="#5E5E5E" d="M1118.4,1213.1c-9.7,0-17.6-7.9-17.6-17.6v-74.1c0-30.6-37.1-56.5-81.1-56.5s-81.1,25.9-81.1,56.5v74.1
			c0,9.7-7.9,17.6-17.6,17.6c-9.7,0-17.6-7.9-17.6-17.6v-74.1c0-50.6,52.2-91.7,116.3-91.7s116.3,41.1,116.3,91.7v74.1
			C1136,1205.2,1128.1,1213.1,1118.4,1213.1z"/>
		<path fill="#5E5E5E" d="M1315.8,1439.1c-9.7,0-17.6-7.9-17.6-17.6v-242.2c0-48.5-36.4-88.1-81.1-88.1c-47.8,0-81.1,22.8-81.1,43.3
			v60.9c0,9.7-7.9,17.6-17.6,17.6s-17.6-7.9-17.6-17.6v-60.9c0-44,51.1-78.5,116.3-78.5c64.1,0,116.3,55.3,116.3,123.3v242.2
			C1333.4,1431.3,1325.5,1439.1,1315.8,1439.1z"/>
		<path fill="#5E5E5E" d="M1174.9,1749.9H603.7c-9.7,0-18.2-7.9-18.2-17.6s7.3-17.6,17-17.6H1175c68,0,123.3-55.3,123.3-123.3
			v-190.1c0-9.7,7.9-17.6,17.6-17.6s17.6,7.9,17.6,17.6v190.1C1333.4,1678.8,1262.3,1749.9,1174.9,1749.9z"/>
	</g>
	<path fill="#5E5E5E" d="M624.8,503.5c-9.7,0-17.6-7.9-17.6-17.6V267.6c0-9.7,7.9-17.6,17.6-17.6c9.7,0,17.6,7.9,17.6,17.6v218.3
		C642.4,495.6,634.5,503.5,624.8,503.5z"/>
	<path fill="#5E5E5E" d="M769.9,564.1c-4.5,0-9-1.7-12.5-5.1c-6.9-6.9-6.9-18,0-24.9l154.3-154.4c6.9-6.9,18-6.9,24.9,0
		s6.9,18,0,24.9L782.3,558.9C778.9,562.3,774.4,564.1,769.9,564.1z"/>
	<path fill="#5E5E5E" d="M1065.3,687.1H847c-9.7,0-17.6-7.9-17.6-17.6s7.9-17.6,17.6-17.6h218.3c9.7,0,17.6,7.9,17.6,17.6
		S1075.1,687.1,1065.3,687.1z"/>
	<g>
		<path fill="#5E5E5E" d="M479.6,564.1c-4.5,0-9-1.7-12.5-5.1L312.8,404.5c-6.9-6.9-6.9-18,0-24.9s18-6.9,24.9,0L492.1,534
			c6.9,6.9,6.9,18,0,24.9C488.7,562.3,484.1,564.1,479.6,564.1z"/>
		<path fill="#5E5E5E" d="M402.5,687.1H184.2c-9.7,0-17.6-7.9-17.6-17.6s7.9-17.6,17.6-17.6h218.2c9.7,0,17.6,7.9,17.6,17.6
			S412.2,687.1,402.5,687.1z"/>
	</g>
</g>
</svg>
