<?xml version="1.0" encoding="utf-8"?>
<!-- Generator: Adobe Illustrator 18.0.0, SVG Export Plug-In . SVG Version: 6.00 Build 0)  -->
<!DOCTYPE svg PUBLIC "-//W3C//DTD SVG 1.1//EN" "http://www.w3.org/Graphics/SVG/1.1/DTD/svg11.dtd">
<svg version="1.1" id="Capa_1" xmlns="http://www.w3.org/2000/svg" xmlns:xlink="http://www.w3.org/1999/xlink" x="0px" y="0px"
	 viewBox="0 0 1500 2000" enable-background="new 0 0 1500 2000" xml:space="preserve">
<g>
	<path id="Twitter__x28_alt_x29_" fill="#5E5E5E" d="M1330.2,942.6c84.4-7,141.2-45.3,163.2-97.3c-30.3,18.8-124.9,39.1-176.8,19.5
		c-2.4-12.2-5.2-23.7-8.4-34.5c-39.8-145.8-175.8-263.3-318.1-249c11.5-4.5,23.4-9.1,34.9-12.9c15.7-5.6,107.8-20.6,93.1-53
		c-12.2-28.6-124.5,21.6-145.8,28.2c27.9-10.5,74.3-28.6,79.2-60.7c-42.9,5.9-84.7,26.2-117.2,55.5c11.9-12.6,20.6-27.9,22.7-44.6
		c-114,73.6-180.7,220.4-234.7,363.1c-42.2-41.2-79.9-73.2-113.7-91.4c-94.5-50.6-207.5-103.6-385-169.5
		c-5.6,58.6,28.9,136.7,128.3,188.7c-21.6-2.8-61,3.5-92.4,11.2c12.9,67.3,54.8,122.8,168.1,149.3c-51.6,3.5-78.5,15.3-102.9,40.5
		c23.7,46.7,81.3,101.8,184.8,90.3c-115.1,49.5-47.1,141.6,46.7,127.6c-159.7,165-411.5,152.8-556.3,15
		C377.7,1733.3,1198.7,1523,1321.1,1027c91.7,0.7,145.4-31.7,178.9-67.7C1447.3,968.8,1370.6,959.7,1330.2,942.6z"/>
</g>
</svg>
